<?xml version="1.0" encoding="UTF-8"?>
<svg version="1.1" xmlns="http://www.w3.org/2000/svg" width="500" height="500">
<path d="M0 0 C2.26719968 -0.00218537 4.53391191 -0.02034219 6.80102539 -0.03930664 C8.24047685 -0.04224088 9.67993062 -0.04422547 11.11938477 -0.04516602 C12.43156982 -0.0492749 13.74375488 -0.05338379 15.09570312 -0.05761719 C18.34204102 0.18530273 18.34204102 0.18530273 21.34204102 2.18530273 C22.88044327 7.28583878 22.75075292 12.81601467 23.06079102 18.10327148 C23.14523337 21.09508752 23.14523337 21.09508752 24.34204102 23.18530273 C26.46100001 24.08477921 28.6131369 24.90701079 30.77954102 25.68530273 C37.12763278 27.9708945 37.12763278 27.9708945 39.34204102 30.18530273 C38.49629722 37.76508207 31.19919034 44.74992135 26.34204102 50.18530273 C24.77969727 49.75217773 24.77969727 49.75217773 23.18579102 49.31030273 C4.89000503 44.47160545 -11.14236812 44.6619648 -28.02124023 54.41967773 C-41.75687501 63.61746576 -48.21898316 75.00256207 -52.31420898 90.70092773 C-53.70418178 100.74664019 -53.11987142 110.64738073 -49.65795898 120.18530273 C-49.35245117 121.14823242 -49.04694336 122.11116211 -48.73217773 123.10327148 C-44.12480032 136.05419055 -34.93560689 144.49038776 -22.96655273 150.63061523 C-9.56187549 156.92938919 4.37519771 158.13301417 18.65844727 153.93920898 C21.53551619 153.13094945 24.38921763 152.63191185 27.34204102 152.18530273 C28.9676242 154.45572058 30.59252903 156.72661863 32.21704102 158.99780273 C32.67723633 159.64040039 33.13743164 160.28299805 33.61157227 160.94506836 C34.27866211 161.87802734 34.27866211 161.87802734 34.95922852 162.82983398 C35.3677002 163.40064697 35.77617187 163.97145996 36.19702148 164.55957031 C39.3522956 169.03952134 39.3522956 169.03952134 39.19750977 171.23999023 C38.0976824 173.74096754 37.11735949 174.19382503 34.65454102 175.31030273 C33.93782227 175.64030273 33.22110352 175.97030273 32.48266602 176.31030273 C30.65424174 177.05768784 28.78183875 177.69591438 26.90454102 178.31030273 C24.19118268 178.90208046 24.19118268 178.90208046 23.34204102 181.18530273 C23.06163692 184.65697247 22.89487319 188.1286593 22.72094727 191.60717773 C21.86829254 199.65905121 21.86829254 199.65905121 19.34204102 202.18530273 C14.53324185 202.47632092 9.72179292 202.49928686 4.9050293 202.53540039 C3.28313861 202.55196687 1.66132114 202.57926657 0.03979492 202.61743164 C-2.29473853 202.67212126 -4.6275593 202.69405929 -6.96264648 202.70874023 C-7.68773407 202.73140961 -8.41282166 202.75407898 -9.15988159 202.7774353 C-11.2121582 202.76879883 -11.2121582 202.76879883 -14.65795898 202.18530273 C-17.86262738 198.37554867 -18.08428736 195.0111704 -18.28295898 190.12280273 C-18.38666146 187.80924983 -18.50921158 185.49639673 -18.65795898 183.18530273 C-18.70307617 182.43635742 -18.74819336 181.68741211 -18.79467773 180.91577148 C-20.25822621 177.98205213 -22.85697366 177.6071168 -25.84545898 176.56030273 C-26.97338867 176.15553711 -28.10131836 175.75077148 -29.26342773 175.33374023 C-30.38362305 174.95475586 -31.50381836 174.57577148 -32.65795898 174.18530273 C-33.65311523 173.69674805 -34.64827148 173.20819336 -35.67358398 172.70483398 C-38.88098547 171.7927793 -38.88098547 171.7927793 -41.91186523 174.36108398 C-43.03317527 175.38685044 -44.13568531 176.43347238 -45.22045898 177.49780273 C-52.3173629 184.26268775 -52.3173629 184.26268775 -56.65795898 184.18530273 C-62.31832164 181.20943962 -66.42433164 176.78681321 -70.90795898 172.31030273 C-71.73553711 171.5072168 -72.56311523 170.70413086 -73.41577148 169.87670898 C-74.20209961 169.09424805 -74.98842773 168.31178711 -75.79858398 167.50561523 C-76.515625 166.79679199 -77.23266602 166.08796875 -77.97143555 165.35766602 C-79.88845654 162.88840533 -80.39500045 161.27978365 -80.65795898 158.18530273 C-78.85726234 152.52597044 -74.75246433 149.24979565 -70.42358398 145.43139648 C-68.39566268 143.34729305 -68.39566268 143.34729305 -68.73608398 140.79077148 C-69.78331368 137.83101637 -70.91489658 134.94391843 -72.15795898 132.06030273 C-73.4229639 129.11107615 -74.64301666 126.2301297 -75.65795898 123.18530273 C-76.82713867 123.07573242 -77.99631836 122.96616211 -79.20092773 122.85327148 C-80.74917092 122.69375552 -82.29734457 122.53356359 -83.84545898 122.37280273 C-84.99884766 122.26742187 -84.99884766 122.26742187 -86.17553711 122.15991211 C-90.67952889 121.67665119 -93.96556553 121.03167206 -97.65795898 118.18530273 C-99.85791876 113.78538317 -98.88505824 107.84577852 -98.89819336 102.95458984 C-98.90790667 100.75962541 -98.93893308 98.56559452 -98.97045898 96.37084961 C-98.97698847 94.97697496 -98.98223916 93.58309362 -98.98608398 92.18920898 C-98.99542969 90.91891846 -99.00477539 89.64862793 -99.0144043 88.33984375 C-98.65795898 85.18530273 -98.65795898 85.18530273 -97.26245117 83.31005859 C-94.63570848 81.46870078 -92.67721389 80.98311135 -89.52514648 80.65014648 C-88.71948242 80.56313477 -87.91381836 80.47612305 -87.08374023 80.38647461 C-86.24198242 80.29946289 -85.40022461 80.21245117 -84.53295898 80.12280273 C-83.2587207 79.98648438 -83.2587207 79.98648438 -81.95874023 79.84741211 C-79.85884448 79.62326593 -77.75844605 79.40383826 -75.65795898 79.18530273 C-75.33182617 78.32807617 -75.00569336 77.47084961 -74.66967773 76.58764648 C-72.43415777 70.73836563 -70.18899992 64.91344801 -67.65795898 59.18530273 C-68.2315918 58.95584961 -68.80522461 58.72639648 -69.39624023 58.48999023 C-72.24793099 56.84497346 -73.80715328 54.88782252 -75.84545898 52.31030273 C-76.88766602 51.01479492 -76.88766602 51.01479492 -77.95092773 49.69311523 C-80.46479531 45.99997339 -80.46479531 45.99997339 -80.65795898 43.18530273 C-79.39250675 39.17324868 -77.62977601 36.7815356 -74.66577148 33.82983398 C-73.8781543 33.04286133 -73.09053711 32.25588867 -72.27905273 31.44506836 C-71.4553418 30.6374707 -70.63163086 29.82987305 -69.78295898 28.99780273 C-68.96698242 28.17860352 -68.15100586 27.3594043 -67.31030273 26.51538086 C-60.42312962 19.6900013 -60.42312962 19.6900013 -56.65795898 18.18530273 C-51.51721718 18.24578205 -48.48068575 21.50163034 -44.84545898 24.74780273 C-44.24797852 25.26793945 -43.65049805 25.78807617 -43.03491211 26.32397461 C-41.56853511 27.60265535 -40.11222192 28.89286115 -38.65795898 30.18530273 C-37.64668945 29.77151367 -37.64668945 29.77151367 -36.61499023 29.34936523 C-33.21641169 28.01148359 -29.78724805 26.78262035 -26.34545898 25.56030273 C-25.37769531 25.21612305 -25.37769531 25.21612305 -24.39038086 24.86499023 C-22.8132172 24.30422093 -21.23563115 23.74463982 -19.65795898 23.18530273 C-19.47620117 21.30584961 -19.47620117 21.30584961 -19.29077148 19.38842773 C-19.12191066 17.73734408 -18.95261716 16.08630464 -18.78295898 14.43530273 C-18.70432617 13.61030273 -18.62569336 12.78530273 -18.54467773 11.93530273 C-18.41899414 10.73647461 -18.41899414 10.73647461 -18.29077148 9.51342773 C-18.21745605 8.78027344 -18.14414063 8.04711914 -18.06860352 7.29174805 C-17.6121171 4.95015183 -16.89244152 3.22333733 -15.65795898 1.18530273 C-11.16639806 -1.06047773 -4.9993799 -0.00054159 0 0 Z " fill="#024AAC" transform="translate(170.657958984375,148.814697265625)"/>
<path d="M0 0 C1.07056641 -0.00128906 2.14113281 -0.00257813 3.24414062 -0.00390625 C4.93506836 0.00189453 4.93506836 0.00189453 6.66015625 0.0078125 C8.3452832 0.00201172 8.3452832 0.00201172 10.06445312 -0.00390625 C11.67223633 -0.00197266 11.67223633 -0.00197266 13.3125 0 C14.79544556 0.00169189 14.79544556 0.00169189 16.30834961 0.00341797 C18.72265625 0.1328125 18.72265625 0.1328125 20.72265625 1.1328125 C20.72265625 4.7628125 20.72265625 8.3928125 20.72265625 12.1328125 C19.40265625 12.1328125 18.08265625 12.1328125 16.72265625 12.1328125 C17.38265625 15.1028125 18.04265625 18.0728125 18.72265625 21.1328125 C20.73077272 17.11657956 21.77273261 13.27602199 22.78515625 8.9453125 C24.59336563 1.26210312 24.59336563 1.26210312 25.72265625 0.1328125 C28.21324539 0.03283608 30.6699302 -0.00598377 33.16015625 0.0078125 C33.85431641 0.00394531 34.54847656 0.00007812 35.26367188 -0.00390625 C40.46937637 0.00617256 40.46937637 0.00617256 42.72265625 1.1328125 C43.40869141 3.26586914 43.40869141 3.26586914 44.01171875 6.04296875 C44.23085938 7.03232422 44.45 8.02167969 44.67578125 9.04101562 C44.8975 10.08193359 45.11921875 11.12285156 45.34765625 12.1953125 C45.69183594 13.76249023 45.69183594 13.76249023 46.04296875 15.36132812 C46.61038945 17.95018508 47.16748378 20.54130133 47.72265625 23.1328125 C49.20765625 17.6878125 49.20765625 17.6878125 50.72265625 12.1328125 C49.73265625 12.1328125 48.74265625 12.1328125 47.72265625 12.1328125 C47.69578346 10.32039198 47.6763191 8.50786017 47.66015625 6.6953125 C47.64855469 5.68597656 47.63695312 4.67664063 47.625 3.63671875 C47.72265625 1.1328125 47.72265625 1.1328125 48.72265625 0.1328125 C50.12940845 0.03476399 51.54100761 0.00483064 52.95117188 0.00341797 C54.2976178 -0.00131027 54.2976178 -0.00131027 55.67126465 -0.00613403 C57.13529724 -0.00309769 57.13529724 -0.00309769 58.62890625 0 C59.62394165 -0.00095673 60.61897705 -0.00191345 61.64416504 -0.00289917 C63.75252343 -0.0035811 65.8608839 -0.00172594 67.96923828 0.00244141 C71.20870652 0.00778947 74.4480361 0.00249683 77.6875 -0.00390625 C79.73046906 -0.00324547 81.77343803 -0.00196431 83.81640625 0 C85.28043884 -0.00303635 85.28043884 -0.00303635 86.77404785 -0.00613403 C87.67167847 -0.00298187 88.56930908 0.00017029 89.49414062 0.00341797 C90.28832397 0.00421356 91.08250732 0.00500916 91.90075684 0.00582886 C93.72265625 0.1328125 93.72265625 0.1328125 94.72265625 1.1328125 C94.79492127 2.98568752 94.80646845 4.84115128 94.78515625 6.6953125 C94.77613281 7.70722656 94.76710938 8.71914062 94.7578125 9.76171875 C94.74621094 10.54417969 94.73460937 11.32664063 94.72265625 12.1328125 C93.07265625 12.1328125 91.42265625 12.1328125 89.72265625 12.1328125 C89.72265625 21.3728125 89.72265625 30.6128125 89.72265625 40.1328125 C91.37265625 40.4628125 93.02265625 40.7928125 94.72265625 41.1328125 C94.72265625 44.7628125 94.72265625 48.3928125 94.72265625 52.1328125 C86.14265625 52.1328125 77.56265625 52.1328125 68.72265625 52.1328125 C68.72265625 48.1728125 68.72265625 44.2128125 68.72265625 40.1328125 C70.04265625 40.1328125 71.36265625 40.1328125 72.72265625 40.1328125 C72.72265625 30.8928125 72.72265625 21.6528125 72.72265625 12.1328125 C70.41265625 12.1328125 68.10265625 12.1328125 65.72265625 12.1328125 C65.59503906 13.13530029 65.46742188 14.13778809 65.3359375 15.1706543 C64.78280752 19.03015263 63.88806133 22.75135418 62.91015625 26.52734375 C62.73637451 27.20077316 62.56259277 27.87420258 62.38354492 28.56803894 C62.01889965 29.97771345 61.65242248 31.38691527 61.28417969 32.7956543 C60.71994618 34.95568737 60.16228774 37.11734193 59.60546875 39.27929688 C56.86506033 49.84800433 56.86506033 49.84800433 55.72265625 52.1328125 C49.12265625 52.1328125 42.52265625 52.1328125 35.72265625 52.1328125 C34.40265625 47.1828125 33.08265625 42.2328125 31.72265625 37.1328125 C31.26890625 38.3084375 30.81515625 39.4840625 30.34765625 40.6953125 C30.09242188 41.35660156 29.8371875 42.01789063 29.57421875 42.69921875 C28.48922212 45.79992012 27.62512944 48.97415633 26.72265625 52.1328125 C20.45265625 52.1328125 14.18265625 52.1328125 7.72265625 52.1328125 C5.42005154 43.60464689 3.1609046 35.06608555 0.97265625 26.5078125 C0.75005127 25.65541992 0.52744629 24.80302734 0.2980957 23.92480469 C-0.71696693 19.91871205 -1.58376496 16.30354569 -1.27734375 12.1328125 C-2.92734375 12.1328125 -4.57734375 12.1328125 -6.27734375 12.1328125 C-6.30421654 10.32039198 -6.3236809 8.50786017 -6.33984375 6.6953125 C-6.35144531 5.68597656 -6.36304688 4.67664063 -6.375 3.63671875 C-6.19817476 -0.89708029 -3.99660974 0.00456495 0 0 Z " fill="#060606" transform="translate(244.27734375,205.8671875)"/>
<path d="M0 0 C0.79407257 -0.00315216 1.58814514 -0.00630432 2.40628052 -0.009552 C3.25431244 -0.00752777 4.10234436 -0.00550354 4.97607422 -0.00341797 C6.29223221 -0.00485306 6.29223221 -0.00485306 7.63497925 -0.00631714 C9.48582023 -0.00699656 11.33666362 -0.00515888 13.1875 -0.00097656 C16.02723501 0.00438787 18.86681278 -0.00093618 21.70654297 -0.00732422 C23.5047204 -0.00666365 25.30289774 -0.00538292 27.10107422 -0.00341797 C28.37919479 -0.00645432 28.37919479 -0.00645432 29.68313599 -0.009552 C35.67582673 0.01442703 35.67582673 0.01442703 37.90576172 1.12939453 C37.93260484 3.94195734 37.95252359 6.75426694 37.96826172 9.56689453 C37.97664063 10.36933594 37.98501953 11.17177734 37.99365234 11.99853516 C38.00227602 14.04234674 37.95804322 16.08623355 37.90576172 18.12939453 C36.90576172 19.12939453 36.90576172 19.12939453 34.83935547 19.22705078 C34.01564453 19.21544922 33.19193359 19.20384766 32.34326172 19.19189453 C31.51697266 19.18287109 30.69068359 19.17384766 29.83935547 19.16455078 C28.88222656 19.14714844 28.88222656 19.14714844 27.90576172 19.12939453 C27.91736328 19.98404297 27.92896484 20.83869141 27.94091797 21.71923828 C27.94994141 22.82396484 27.95896484 23.92869141 27.96826172 25.06689453 C27.97986328 26.16904297 27.99146484 27.27119141 28.00341797 28.40673828 C27.90576172 31.12939453 27.90576172 31.12939453 26.90576172 32.12939453 C24.71936719 32.20198399 22.53075783 32.21313236 20.34326172 32.19189453 C18.54695313 32.17835938 18.54695313 32.17835938 16.71435547 32.16455078 C15.78751953 32.15294922 14.86068359 32.14134766 13.90576172 32.12939453 C13.90576172 34.76939453 13.90576172 37.40939453 13.90576172 40.12939453 C16.87576172 40.12939453 19.84576172 40.12939453 22.90576172 40.12939453 C22.90576172 38.14939453 22.90576172 36.16939453 22.90576172 34.12939453 C27.85576172 34.12939453 32.80576172 34.12939453 37.90576172 34.12939453 C37.90576172 40.06939453 37.90576172 46.00939453 37.90576172 52.12939453 C22.72576172 52.12939453 7.54576172 52.12939453 -8.09423828 52.12939453 C-8.09423828 48.49939453 -8.09423828 44.86939453 -8.09423828 41.12939453 C-5.61923828 40.63439453 -5.61923828 40.63439453 -3.09423828 40.12939453 C-3.09423828 30.88939453 -3.09423828 21.64939453 -3.09423828 12.12939453 C-4.74423828 12.12939453 -6.39423828 12.12939453 -8.09423828 12.12939453 C-8.09423828 8.49939453 -8.09423828 4.86939453 -8.09423828 1.12939453 C-5.03163743 0.36374432 -3.03956016 0.0034761 0 0 Z M13.90576172 12.12939453 C13.90576172 14.43939453 13.90576172 16.74939453 13.90576172 19.12939453 C16.87576172 19.12939453 19.84576172 19.12939453 22.90576172 19.12939453 C22.90576172 16.81939453 22.90576172 14.50939453 22.90576172 12.12939453 C19.93576172 12.12939453 16.96576172 12.12939453 13.90576172 12.12939453 Z " fill="#070708" transform="translate(159.09423828125,205.87060546875)"/>
<path d="M0 0 C1.9375 0.375 1.9375 0.375 4 1 C5 3 5 3 5 7 C5.66 6.67 6.32 6.34 7 6 C8.875 5.83203125 8.875 5.83203125 11 5.8125 C11.70125 5.79832031 12.4025 5.78414063 13.125 5.76953125 C15 6 15 6 17 8 C17.66 7.34 18.32 6.68 19 6 C21.6015625 5.8046875 21.6015625 5.8046875 24.625 5.875 C25.62789063 5.89304687 26.63078125 5.91109375 27.6640625 5.9296875 C28.43492187 5.95289063 29.20578125 5.97609375 30 6 C30.99 8.475 30.99 8.475 32 11 C32.185625 10.0409375 32.185625 10.0409375 32.375 9.0625 C32.58125 8.381875 32.7875 7.70125 33 7 C35.21295616 5.89352192 36.54672699 5.80411632 39 5.75 C39.70125 5.72421875 40.4025 5.6984375 41.125 5.671875 C41.74375 5.78015625 42.3625 5.8884375 43 6 C43.99 7.485 43.99 7.485 45 9 C45.99 6.36 46.98 3.72 48 1 C49.32 1 50.64 1 52 1 C52.14503905 7.67179653 52.12372612 14.62882164 50 21 C49.154375 20.79375 48.30875 20.5875 47.4375 20.375 C43.95449029 19.76477874 43.95449029 19.76477874 40.5625 21.0625 C36.2786559 22.1898274 34.15617698 21.30842609 30 20 C27.17855097 20.27734938 27.17855097 20.27734938 25 21 C23.3584951 17.7169902 24.48111376 14.57454967 25 11 C22.86200961 13.87135735 22.86200961 13.87135735 22.125 17.125 C21 20 21 20 19 21 C18.34 21 17.68 21 17 21 C16.01 20.01 16.01 20.01 15 19 C14.29875 19.53625 13.5975 20.0725 12.875 20.625 C10 22 10 22 6.875 21.375 C4.28926712 20.13834514 2.79191349 19.19011648 1 17 C0.67 18.32 0.34 19.64 0 21 C-1.32 20.67 -2.64 20.34 -4 20 C-3.67 17.03 -3.34 14.06 -3 11 C-3.66 11 -4.32 11 -5 11 C-5.62457273 14.43515002 -6 17.49064814 -6 21 C-7.66611905 21.042721 -9.33382885 21.04063832 -11 21 C-12 20 -12 20 -12.0625 16.4375 C-12.041875 15.303125 -12.02125 14.16875 -12 13 C-12.66 15.64 -13.32 18.28 -14 21 C-19.35317859 21.86303969 -22.95856511 22.30465595 -28 20 C-30.24240782 20.28739925 -30.24240782 20.28739925 -32 21 C-33.231394 17.30581799 -32.64432764 14.7943739 -32 11 C-32.66 11 -33.32 11 -34 11 C-34.66 13.97 -35.32 16.94 -36 20 C-37.32 20.33 -38.64 20.66 -40 21 C-41.10844919 17.67465243 -40.84454356 15.37817425 -40 12 C-40.66 12 -41.32 12 -42 12 C-43.32 14.97 -44.64 17.94 -46 21 C-46.7425 20.79375 -47.485 20.5875 -48.25 20.375 C-50.94900491 19.73874431 -50.94900491 19.73874431 -52.9375 21 C-55.961617 22.46623855 -57.8345188 21.94290929 -61 21 C-62.9375 19.375 -62.9375 19.375 -64 17 C-63.6875 13.25 -63.6875 13.25 -63 10 C-63.66 10 -64.32 10 -65 10 C-65 11.0725 -65 12.145 -65 13.25 C-65 15.83333333 -65 18.41666667 -65 21 C-66.66611905 21.042721 -68.33382885 21.04063832 -70 21 C-71 20 -71 20 -71.125 16.625 C-71 13 -71 13 -70 10 C-70.66 10 -71.32 10 -72 10 C-72.33 13.3 -72.66 16.6 -73 20 C-74.32 20.33 -75.64 20.66 -77 21 C-78 20 -78 20 -78.09765625 17.93359375 C-78.08605469 17.10988281 -78.07445312 16.28617187 -78.0625 15.4375 C-78.05347656 14.61121094 -78.04445313 13.78492188 -78.03515625 12.93359375 C-78.02355469 12.29550781 -78.01195312 11.65742188 -78 11 C-78.66 11 -79.32 11 -80 11 C-80.66 13.97 -81.32 16.94 -82 20 C-87.02192996 21.25548249 -91.84090015 21 -97 21 C-97 19.68 -97 18.36 -97 17 C-96.34 17 -95.68 17 -95 17 C-94.80533668 15.20909747 -94.61948787 13.41723495 -94.4375 11.625 C-94.33308594 10.62726563 -94.22867187 9.62953125 -94.12109375 8.6015625 C-93.78855292 6.015963 -93.78855292 6.015963 -95 4 C-94.67 3.01 -94.34 2.02 -94 1 C-90.7 1 -87.4 1 -84 1 C-84.33 2.65 -84.66 4.3 -85 6 C-85.66 6 -86.32 6 -87 6 C-87.33 9.63 -87.66 13.26 -88 17 C-85.66213769 12.63142293 -85.66213769 12.63142293 -84 6 C-79.05 6 -74.1 6 -69 6 C-69 5.01 -69 4.02 -69 3 C-65.25 1.875 -65.25 1.875 -63 3 C-61.875 5.0625 -61.875 5.0625 -61 7 C-60.67 6.67 -60.34 6.34 -60 6 C-58.00390625 5.83203125 -58.00390625 5.83203125 -55.5625 5.8125 C-54.35787109 5.79123047 -54.35787109 5.79123047 -53.12890625 5.76953125 C-51 6 -51 6 -49 8 C-48.34 7.34 -47.68 6.68 -47 6 C-40.23045241 4.62101808 -33.82996996 5.26008659 -27 6 C-26.01 8.475 -26.01 8.475 -25 11 C-24.855625 10.360625 -24.71125 9.72125 -24.5625 9.0625 C-24 7 -24 7 -23 6 C-21.56419394 5.92719036 -20.12499502 5.91632577 -18.6875 5.9375 C-17.90761719 5.94652344 -17.12773437 5.95554687 -16.32421875 5.96484375 C-15.17373047 5.98224609 -15.17373047 5.98224609 -14 6 C-12.68 6 -11.36 6 -10 6 C-9.34 4.68 -8.68 3.36 -8 2 C-6.68 2.33 -5.36 2.66 -4 3 C-4 3.99 -4 4.98 -4 6 C-3.01 5.67 -2.02 5.34 -1 5 C-0.67 3.35 -0.34 1.7 0 0 Z M10 10 C8.39092892 12.37612865 8.39092892 12.37612865 7 15 C7.33 15.66 7.66 16.32 8 17 C8.99 17 9.98 17 11 17 C11.33 15.02 11.66 13.04 12 11 C11.34 10.67 10.68 10.34 10 10 Z M2 12 C3 14 3 14 3 14 Z M44 13 C44 14.65 44 16.3 44 18 C44.33 18 44.66 18 45 18 C45 16.35 45 14.7 45 13 C44.67 13 44.34 13 44 13 Z " fill="#101010" transform="translate(413,273)"/>
<path d="M0 0 C0.98033203 -0.00128906 1.96066406 -0.00257813 2.97070312 -0.00390625 C4.51854492 0.00189453 4.51854492 0.00189453 6.09765625 0.0078125 C7.12568359 0.00394531 8.15371094 0.00007812 9.21289062 -0.00390625 C10.68532227 -0.00197266 10.68532227 -0.00197266 12.1875 0 C13.54476196 0.00169189 13.54476196 0.00169189 14.92944336 0.00341797 C17.16015625 0.1328125 17.16015625 0.1328125 19.16015625 1.1328125 C19.16015625 4.7628125 19.16015625 8.3928125 19.16015625 12.1328125 C17.84015625 12.1328125 16.52015625 12.1328125 15.16015625 12.1328125 C15.16015625 21.3728125 15.16015625 30.6128125 15.16015625 40.1328125 C17.14015625 40.1328125 19.12015625 40.1328125 21.16015625 40.1328125 C21.16015625 37.1628125 21.16015625 34.1928125 21.16015625 31.1328125 C26.11015625 31.1328125 31.06015625 31.1328125 36.16015625 31.1328125 C36.16015625 38.0628125 36.16015625 44.9928125 36.16015625 52.1328125 C22.30015625 52.1328125 8.44015625 52.1328125 -5.83984375 52.1328125 C-5.83984375 48.1728125 -5.83984375 44.2128125 -5.83984375 40.1328125 C-4.84984375 40.1328125 -3.85984375 40.1328125 -2.83984375 40.1328125 C-2.83984375 30.8928125 -2.83984375 21.6528125 -2.83984375 12.1328125 C-3.82984375 12.1328125 -4.81984375 12.1328125 -5.83984375 12.1328125 C-5.86671654 10.32039198 -5.8861809 8.50786017 -5.90234375 6.6953125 C-5.91394531 5.68597656 -5.92554688 4.67664063 -5.9375 3.63671875 C-5.76683469 -0.73913988 -3.88553412 0.00484956 0 0 Z " fill="#060606" transform="translate(203.83984375,205.8671875)"/>
<path d="M0 0 C1.2065625 0.0309375 1.2065625 0.0309375 2.4375 0.0625 C1.95763969 5.63140517 1.13834819 10.73317568 -0.5625 16.0625 C2.0775 16.0625 4.7175 16.0625 7.4375 16.0625 C7.55867187 15.43601562 7.67984375 14.80953125 7.8046875 14.1640625 C7.97226563 13.34679687 8.13984375 12.52953125 8.3125 11.6875 C8.47492188 10.87539063 8.63734375 10.06328125 8.8046875 9.2265625 C9.4375 7.0625 9.4375 7.0625 11.4375 5.0625 C13.53125 4.76171875 13.53125 4.76171875 15.9375 4.75 C16.7315625 4.73324219 17.525625 4.71648437 18.34375 4.69921875 C19.0346875 4.81910156 19.725625 4.93898438 20.4375 5.0625 C21.4275 6.5475 21.4275 6.5475 22.4375 8.0625 C22.7675 7.0725 23.0975 6.0825 23.4375 5.0625 C25.22843191 4.98163853 27.02039628 4.92337298 28.8125 4.875 C30.30910156 4.82279297 30.30910156 4.82279297 31.8359375 4.76953125 C32.69445312 4.86621094 33.55296875 4.96289062 34.4375 5.0625 C35.0975 6.0525 35.7575 7.0425 36.4375 8.0625 C37.0975 5.4225 37.7575 2.7825 38.4375 0.0625 C40.0875 0.0625 41.7375 0.0625 43.4375 0.0625 C43.9325 2.5375 43.9325 2.5375 44.4375 5.0625 C45.56929687 5.02769531 46.70109375 4.99289062 47.8671875 4.95703125 C49.34894353 4.92889664 50.83071556 4.90159613 52.3125 4.875 C53.43205078 4.83729492 53.43205078 4.83729492 54.57421875 4.79882812 C56.7421875 4.76953125 56.7421875 4.76953125 60.4375 5.0625 C62.63936088 8.36529131 62.63794366 8.85447351 62.125 12.5625 C62.02574219 13.3359375 61.92648438 14.109375 61.82421875 14.90625 C61.4375 17.0625 61.4375 17.0625 60.4375 20.0625 C59.02206585 20.25908808 57.60505969 20.44437546 56.1875 20.625 C55.39859375 20.72941406 54.6096875 20.83382813 53.796875 20.94140625 C51.40741229 21.06404424 49.71545435 20.73780171 47.4375 20.0625 C46.550625 19.918125 45.66375 19.77375 44.75 19.625 C43.986875 19.439375 43.22375 19.25375 42.4375 19.0625 C41.9425 18.0725 41.9425 18.0725 41.4375 17.0625 C40.7775 18.0525 40.1175 19.0425 39.4375 20.0625 C38.695 19.876875 37.9525 19.69125 37.1875 19.5 C34.48759037 19.07046892 32.99118923 19.21127026 30.4375 20.0625 C29.39744298 16.68231469 29.35745518 13.5844721 29.4375 10.0625 C28.1175 13.3625 26.7975 16.6625 25.4375 20.0625 C23.18817773 20.2579625 20.93799858 20.44358226 18.6875 20.625 C17.43453125 20.72941406 16.1815625 20.83382813 14.890625 20.94140625 C11.92299312 21.04547479 10.21385699 20.8116757 7.4375 20.0625 C5.18842848 19.99459325 2.93748395 19.97750016 0.6875 20 C-1.06820312 20.01353516 -1.06820312 20.01353516 -2.859375 20.02734375 C-3.75140625 20.03894531 -4.6434375 20.05054688 -5.5625 20.0625 C-7.1045258 16.0635131 -6.06283915 12.41000636 -5.1875 8.375 C-5.04828125 7.68599609 -4.9090625 6.99699219 -4.765625 6.28710938 C-3.47269401 0.08469985 -3.47269401 0.08469985 0 0 Z M48.4375 9.0625 C47.4475 9.7225 46.4575 10.3825 45.4375 11.0625 C45.7675 12.7125 46.0975 14.3625 46.4375 16.0625 C48.06581762 14.25288423 48.06581762 14.25288423 49.4375 12.0625 C49.1075 11.0725 48.7775 10.0825 48.4375 9.0625 Z M35.4375 11.0625 C36.4375 14.0625 36.4375 14.0625 36.4375 14.0625 Z M20.4375 15.0625 C21.4375 18.0625 21.4375 18.0625 21.4375 18.0625 Z " fill="#101111" transform="translate(178.5625,273.9375)"/>
<path d="M0 0 C1.32 0.33 2.64 0.66 4 1 C4 2.98 4 4.96 4 7 C4.66 6.34 5.32 5.68 6 5 C9.625 4.875 9.625 4.875 13 5 C13.33 3.35 13.66 1.7 14 0 C15.65 0 17.3 0 19 0 C18.73482126 3.34264779 18.39259037 6.66990995 18 10 C17.90074219 10.85722656 17.80148437 11.71445312 17.69921875 12.59765625 C17.32924761 14.89596185 16.93971641 16.86935585 16 19 C12.02898939 21.29436169 9.32528764 21.13823359 5 20 C3.68 20 2.36 20 1 20 C-0.67225729 19.69595322 -2.34080104 19.36871088 -4 19 C-4.125 12.25 -4.125 12.25 -3 10 C-3.99 10.33 -4.98 10.66 -6 11 C-7.02281518 13.09719872 -7.02281518 13.09719872 -7.6875 15.5625 C-7.93886719 16.38878906 -8.19023437 17.21507812 -8.44921875 18.06640625 C-8.63097656 18.70449219 -8.81273437 19.34257812 -9 20 C-10.175625 19.7525 -10.175625 19.7525 -11.375 19.5 C-15.39873591 18.73262437 -15.39873591 18.73262437 -19 21 C-22 20.875 -22 20.875 -25 20 C-26.875 17.9375 -26.875 17.9375 -28 16 C-28.99 17.32 -29.98 18.64 -31 20 C-33.4375 19.625 -33.4375 19.625 -36 19 C-36.33 18.34 -36.66 17.68 -37 17 C-37.66 17.99 -38.32 18.98 -39 20 C-40.9375 19.625 -40.9375 19.625 -43 19 C-44.38226016 16.23547967 -44.09525387 13.9538637 -44.0625 10.875 C-44.05347656 9.77929688 -44.04445312 8.68359375 -44.03515625 7.5546875 C-44.02355469 6.71164062 -44.01195312 5.86859375 -44 5 C-43.030625 5.185625 -42.06125 5.37125 -41.0625 5.5625 C-40.051875 5.706875 -39.04125 5.85125 -38 6 C-37.67 5.67 -37.34 5.34 -37 5 C-35.33382885 4.95936168 -33.66611905 4.957279 -32 5 C-31.67 5.66 -31.34 6.32 -31 7 C-30.67 6.34 -30.34 5.68 -30 5 C-27.54137599 4.94616152 -25.0839245 4.90640962 -22.625 4.875 C-21.57699219 4.84986328 -21.57699219 4.84986328 -20.5078125 4.82421875 C-18.67102514 4.80655733 -16.83398037 4.89696739 -15 5 C-14.34 5.66 -13.68 6.32 -13 7 C-12.34 6.34 -11.68 5.68 -11 5 C-8.8359375 4.8046875 -8.8359375 4.8046875 -6.375 4.875 C-5.14910156 4.90207031 -5.14910156 4.90207031 -3.8984375 4.9296875 C-2.95871094 4.96449219 -2.95871094 4.96449219 -2 5 C-1.34 3.35 -0.68 1.7 0 0 Z M2 8 C3 12 3 12 3 12 Z M-20 9 C-22.28728734 10.83883881 -22.28728734 10.83883881 -22.125 13.625 C-22.08375 14.40875 -22.0425 15.1925 -22 16 C-20.68 15.34 -19.36 14.68 -18 14 C-18.33 12.35 -18.66 10.7 -19 9 C-19.33 9 -19.66 9 -20 9 Z M10 9 C7.71271266 10.83883881 7.71271266 10.83883881 7.875 13.625 C7.91625 14.40875 7.9575 15.1925 8 16 C8.99 15.67 9.98 15.34 11 15 C11.91428339 13.09291157 11.91428339 13.09291157 12 11 C11.34 10.34 10.68 9.68 10 9 Z M1 12 C2 16 2 16 2 16 Z " fill="#0B0A0B" transform="translate(292,274)"/>
<path d="M0 0 C3.3 0 6.6 0 10 0 C9.67 1.65 9.34 3.3 9 5 C8.34 5 7.68 5 7 5 C6.67 8.63 6.34 12.26 6 16 C8.33786231 11.63142293 8.33786231 11.63142293 10 5 C14.95 5 19.9 5 25 5 C25 4.01 25 3.02 25 2 C28.75 0.875 28.75 0.875 31 2 C32.125 4.0625 32.125 4.0625 33 6 C33.33 5.67 33.66 5.34 34 5 C36.33297433 4.95907063 38.66705225 4.95758277 41 5 C40.01 5.66 39.02 6.32 38 7 C38.66 7.66 39.32 8.32 40 9 C38.68 9 37.36 9 36 9 C36.495 10.485 36.495 10.485 37 12 C34.07120629 11.37240135 31.63904371 10.41377341 29 9 C29 10.0725 29 11.145 29 12.25 C29 14.83333333 29 17.41666667 29 20 C27.33388095 20.042721 25.66617115 20.04063832 24 20 C23 19 23 19 22.875 15.625 C23 12 23 12 24 9 C23.34 9 22.68 9 22 9 C21.67 12.3 21.34 15.6 21 19 C19.68 19.33 18.36 19.66 17 20 C16 19 16 19 15.90234375 16.93359375 C15.91394531 16.10988281 15.92554688 15.28617187 15.9375 14.4375 C15.94652344 13.61121094 15.95554687 12.78492188 15.96484375 11.93359375 C15.97644531 11.29550781 15.98804688 10.65742188 16 10 C15.34 10 14.68 10 14 10 C13.34 12.97 12.68 15.94 12 19 C6.97807004 20.25548249 2.15909985 20 -3 20 C-3 18.68 -3 17.36 -3 16 C-2.34 16 -1.68 16 -1 16 C-0.80533668 14.20909747 -0.61948787 12.41723495 -0.4375 10.625 C-0.33308594 9.62726563 -0.22867187 8.62953125 -0.12109375 7.6015625 C0.21144708 5.015963 0.21144708 5.015963 -1 3 C-0.67 2.01 -0.34 1.02 0 0 Z " fill="#131313" transform="translate(319,274)"/>
<path d="M0 0 C0.969375 0.185625 1.93875 0.37125 2.9375 0.5625 C3.948125 0.706875 4.95875 0.85125 6 1 C6.33 0.67 6.66 0.34 7 0 C8.66617115 -0.04063832 10.33388095 -0.042721 12 0 C12.33 0.66 12.66 1.32 13 2 C13.33 1.34 13.66 0.68 14 0 C16.45862401 -0.05383848 18.9160755 -0.09359038 21.375 -0.125 C22.42300781 -0.15013672 22.42300781 -0.15013672 23.4921875 -0.17578125 C25.32897486 -0.19344267 27.16601963 -0.10303261 29 0 C31.5654594 2.5654594 31.54046087 4.47686668 32 8 C31.01 8 30.02 8 29 8 C29.12375 9.1446875 29.12375 9.1446875 29.25 10.3125 C29 13 29 13 27.375 14.875 C24.12417849 16.41486282 22.39465348 16.08340005 19 15 C17.125 12.9375 17.125 12.9375 16 11 C15.01 12.32 14.02 13.64 13 15 C10.5625 14.625 10.5625 14.625 8 14 C7.67 13.34 7.34 12.68 7 12 C6.01 13.485 6.01 13.485 5 15 C3.0625 14.625 3.0625 14.625 1 14 C-0.38226016 11.23547967 -0.09525387 8.9538637 -0.0625 5.875 C-0.05347656 4.77929688 -0.04445312 3.68359375 -0.03515625 2.5546875 C-0.02355469 1.71164062 -0.01195312 0.86859375 0 0 Z M24 4 C21.71271266 5.83883881 21.71271266 5.83883881 21.875 8.625 C21.91625 9.40875 21.9575 10.1925 22 11 C23.32 10.34 24.64 9.68 26 9 C25.67 7.35 25.34 5.7 25 4 C24.67 4 24.34 4 24 4 Z " fill="#080808" transform="translate(248,279)"/>
<path d="M0 0 C1.79244141 0.01740234 1.79244141 0.01740234 3.62109375 0.03515625 C5.41740234 0.04869141 5.41740234 0.04869141 7.25 0.0625 C8.17683594 0.07410156 9.10367188 0.08570313 10.05859375 0.09765625 C10.62109375 2.03515625 10.62109375 2.03515625 11.05859375 4.09765625 C10.05859375 5.09765625 10.05859375 5.09765625 7.9921875 5.1953125 C7.16847656 5.18371094 6.34476563 5.17210937 5.49609375 5.16015625 C4.66980469 5.15113281 3.84351563 5.14210938 2.9921875 5.1328125 C2.35410156 5.12121094 1.71601563 5.10960937 1.05859375 5.09765625 C1.05859375 6.08765625 1.05859375 7.07765625 1.05859375 8.09765625 C3.03859375 8.09765625 5.01859375 8.09765625 7.05859375 8.09765625 C6.72859375 9.74765625 6.39859375 11.39765625 6.05859375 13.09765625 C5.08921875 13.22140625 4.11984375 13.34515625 3.12109375 13.47265625 C2.11046875 13.67890625 1.09984375 13.88515625 0.05859375 14.09765625 C-0.27140625 14.75765625 -0.60140625 15.41765625 -0.94140625 16.09765625 C1.69859375 16.09765625 4.33859375 16.09765625 7.05859375 16.09765625 C7.38859375 17.08765625 7.71859375 18.07765625 8.05859375 19.09765625 C5.29407342 20.47991641 3.01245745 20.19291012 -0.06640625 20.16015625 C-1.16210938 20.15113281 -2.2578125 20.14210938 -3.38671875 20.1328125 C-4.65128906 20.11541016 -4.65128906 20.11541016 -5.94140625 20.09765625 C-7.48343205 16.09866935 -6.4417454 12.44516261 -5.56640625 8.41015625 C-5.4271875 7.72115234 -5.28796875 7.03214844 -5.14453125 6.32226562 C-3.85328353 0.12793106 -3.85328353 0.12793106 0 0 Z " fill="#1B1C1C" transform="translate(156.94140625,273.90234375)"/>
<path d="M0 0 C3.3 0 6.6 0 10 0 C9.67 1.65 9.34 3.3 9 5 C8.34 5 7.68 5 7 5 C6.67 8.63 6.34 12.26 6 16 C7.64350079 12.71299843 8.41321669 10.52069985 9 7 C10.98 7 12.96 7 15 7 C15.33 7.99 15.66 8.98 16 10 C15.34 10 14.68 10 14 10 C13.34 12.97 12.68 15.94 12 19 C6.97807004 20.25548249 2.15909985 20 -3 20 C-3 18.68 -3 17.36 -3 16 C-2.34 16 -1.68 16 -1 16 C-0.80533668 14.20909747 -0.61948787 12.41723495 -0.4375 10.625 C-0.33308594 9.62726563 -0.22867187 8.62953125 -0.12109375 7.6015625 C0.21144708 5.015963 0.21144708 5.015963 -1 3 C-0.67 2.01 -0.34 1.02 0 0 Z " fill="#151515" transform="translate(319,274)"/>
<path d="M0 0 C1.32 0 2.64 0 4 0 C4.14503905 6.67179653 4.12372612 13.62882164 2 20 C0.7315625 19.690625 0.7315625 19.690625 -0.5625 19.375 C-4.5398227 18.94111025 -7.20423829 19.85410967 -11 21 C-11.99 20.67 -12.98 20.34 -14 20 C-13.67 18.35 -13.34 16.7 -13 15 C-12.01 15.33 -11.02 15.66 -10 16 C-10 15.34 -10 14.68 -10 14 C-8.5 12.375 -8.5 12.375 -7 11 C-7.99 11.33 -8.98 11.66 -10 12 C-10.66 11.01 -11.32 10.02 -12 9 C-10.68 9.33 -9.36 9.66 -8 10 C-7.34 8.35 -6.68 6.7 -6 5 C-5.01 5.99 -4.02 6.98 -3 8 C-2.01 5.36 -1.02 2.72 0 0 Z M-4 12 C-4 13.65 -4 15.3 -4 17 C-3.67 17 -3.34 17 -3 17 C-3 15.35 -3 13.7 -3 12 C-3.33 12 -3.66 12 -4 12 Z " fill="#0A0A0A" transform="translate(461,274)"/>
<path d="M0 0 C0.61875 0.4125 1.2375 0.825 1.875 1.25 C5.40799467 3.22847701 9.00540285 4.62120736 12.79296875 6.03515625 C15 7 15 7 17 9 C16.1542562 16.57977933 8.85714932 23.56461862 4 29 C2.94683594 28.72285156 1.89367187 28.44570312 0.80859375 28.16015625 C-8.86177789 25.70225603 -18.01637731 24.29064404 -28 24 C-27.67 23.34 -27.34 22.68 -27 22 C-23.99943916 21.91833151 -21.0011461 21.85918449 -18 21.8125 C-17.16082031 21.78736328 -16.32164062 21.76222656 -15.45703125 21.73632812 C-9.5585846 21.66774154 -5.43276934 22.73038913 0 25 C0.99 25 1.98 25 3 25 C4.69088222 23.02043058 6.35830472 21.02054804 8 19 C8.66 19 9.32 19 10 19 C10 18.071875 10 17.14375 10 16.1875 C10 14.125 10 12.0625 10 10 C8.68662604 8.9739266 7.35335895 7.97272675 6 7 C6 6.34 6 5.68 6 5 C4.35 5 2.7 5 1 5 C0.67 3.35 0.34 1.7 0 0 Z " fill="#5785C2" transform="translate(193,170)"/>
<path d="M0 0 C1.64548828 0.63228516 1.64548828 0.63228516 3.32421875 1.27734375 C4.77856765 1.83093462 6.2329991 2.38430862 7.6875 2.9375 C8.40873047 3.21529297 9.12996094 3.49308594 9.87304688 3.77929688 C21.52893084 8.19682367 33.35292895 8.26658682 45.31640625 4.75390625 C48.19347518 3.94564671 51.04717662 3.44660912 54 3 C55.98 5.64 57.96 8.28 60 11 C59.67 11.66 59.34 12.32 59 13 C53.125 10.25 53.125 10.25 52 8 C47.83057204 8.45484669 43.87044926 9.00292436 39.8125 10.0625 C30.26512083 12.24804463 17.49362316 12.43526664 8.64453125 7.75390625 C7.28935813 6.88254721 5.95565353 5.97596636 4.65625 5.0234375 C2.89914433 3.73716813 2.89914433 3.73716813 0 4 C0 2.68 0 1.36 0 0 Z " fill="#3E70B5" transform="translate(144,298)"/>
<path d="M0 0 C0.5775 0.37125 1.155 0.7425 1.75 1.125 C1.75 2.115 1.75 3.105 1.75 4.125 C3.07 3.465 4.39 2.805 5.75 2.125 C4.01018144 6.8091269 2.38601898 10.79849812 -1.5625 14 C-4.98739988 15.43367902 -6.73860065 15.27002153 -10.25 14.125 C-12.1875 12.5 -12.1875 12.5 -13.25 10.125 C-12.9375 6.375 -12.9375 6.375 -12.25 3.125 C-9.25 4.125 -9.25 4.125 -7.25 5.125 C-7.25 4.465 -7.25 3.805 -7.25 3.125 C-6.26 3.125 -5.27 3.125 -4.25 3.125 C-4.91 2.465 -5.57 1.805 -6.25 1.125 C-2.80384615 -1.09038462 -2.80384615 -1.09038462 0 0 Z " fill="#060606" transform="translate(362.25,279.875)"/>
<path d="M0 0 C2.26719968 -0.00218537 4.53391191 -0.02034219 6.80102539 -0.03930664 C8.24047685 -0.04224088 9.67993062 -0.04422547 11.11938477 -0.04516602 C12.43156982 -0.0492749 13.74375488 -0.05338379 15.09570312 -0.05761719 C18.34204102 0.18530273 18.34204102 0.18530273 21.34204102 2.18530273 C22.61665352 6.22764524 22.44386048 10.29062057 22.40454102 14.49780273 C22.39551758 15.75206055 22.38649414 17.00631836 22.37719727 18.29858398 C22.3655957 19.25120117 22.35399414 20.20381836 22.34204102 21.18530273 C20.34204102 19.18530273 20.34204102 19.18530273 20.14672852 16.14624023 C20.16993164 14.96288086 20.19313477 13.77952148 20.21704102 12.56030273 C20.23508789 11.37178711 20.25313477 10.18327148 20.27172852 8.95874023 C20.29493164 8.04350586 20.31813477 7.12827148 20.34204102 6.18530273 C19.68204102 6.18530273 19.02204102 6.18530273 18.34204102 6.18530273 C17.84704102 3.71030273 17.84704102 3.71030273 17.34204102 1.18530273 C16.26954102 1.34901367 15.19704102 1.51272461 14.09204102 1.68139648 C8.51319546 2.37875218 2.95554137 2.29346951 -2.65795898 2.24780273 C-3.71885742 2.24329102 -4.77975586 2.2387793 -5.87280273 2.23413086 C-8.46791497 2.22244116 -11.06290608 2.2060555 -13.65795898 2.18530273 C-13.65795898 4.82530273 -13.65795898 7.46530273 -13.65795898 10.18530273 C-12.66795898 10.18530273 -11.67795898 10.18530273 -10.65795898 10.18530273 C-10.96733398 10.94842773 -11.27670898 11.71155273 -11.59545898 12.49780273 C-12.33689492 14.3731995 -13.02024116 16.27214925 -13.65795898 18.18530273 C-14.97795898 18.18530273 -16.29795898 18.18530273 -17.65795898 18.18530273 C-17.71214225 16.10225735 -17.7508345 14.01880505 -17.78295898 11.93530273 C-17.80616211 10.77514648 -17.82936523 9.61499023 -17.85327148 8.41967773 C-17.66720951 5.3384914 -17.37491852 3.70671184 -15.65795898 1.18530273 C-11.16639806 -1.06047773 -4.9993799 -0.00054159 0 0 Z " fill="#205AA9" transform="translate(170.657958984375,148.814697265625)"/>
<path d="M0 0 C1.2065625 0.0309375 1.2065625 0.0309375 2.4375 0.0625 C1.95763969 5.63140517 1.13834819 10.73317568 -0.5625 16.0625 C4.8825 15.5675 4.8825 15.5675 10.4375 15.0625 C10.4375 16.7125 10.4375 18.3625 10.4375 20.0625 C5.1575 20.0625 -0.1225 20.0625 -5.5625 20.0625 C-6.65735401 15.68308395 -6.11702883 12.65980174 -5.1875 8.375 C-5.04828125 7.68599609 -4.9090625 6.99699219 -4.765625 6.28710938 C-3.47269401 0.08469985 -3.47269401 0.08469985 0 0 Z " fill="#161719" transform="translate(178.5625,273.9375)"/>
<path d="M0 0 C-0.8125 1.9375 -0.8125 1.9375 -2 4 C-2.99 4.33 -3.98 4.66 -5 5 C-3.68 5.33 -2.36 5.66 -1 6 C-1.33 6.99 -1.66 7.98 -2 9 C-3.65 9.33 -5.3 9.66 -7 10 C-6.67 10.99 -6.34 11.98 -6 13 C-6.66 13 -7.32 13 -8 13 C-8 13.66 -8 14.32 -8 15 C-8.556875 14.814375 -9.11375 14.62875 -9.6875 14.4375 C-12.399133 13.92448835 -14.34371039 14.3359276 -17 15 C-18 13 -18 13 -17.44140625 10.8359375 C-17.15136719 10.02382813 -16.86132812 9.21171875 -16.5625 8.375 C-16.27503906 7.55773437 -15.98757813 6.74046875 -15.69140625 5.8984375 C-15.46324219 5.27195312 -15.23507812 4.64546875 -15 4 C-12.525 4.99 -12.525 4.99 -10 6 C-9.87625 5.195625 -9.7525 4.39125 -9.625 3.5625 C-9.41875 2.716875 -9.2125 1.87125 -9 1 C-6.04335481 -0.4783226 -3.25770263 -0.06032783 0 0 Z " fill="#111111" transform="translate(455,279)"/>
<path d="M0 0 C0.99 0.99 1.98 1.98 3 3 C-0.31170088 6.02372689 -3.85815872 7.03255989 -8.07421875 8.25390625 C-10.1935741 8.82676299 -10.1935741 8.82676299 -11 11 C-11.28040409 14.47166974 -11.44716783 17.94335657 -11.62109375 21.421875 C-12.47374847 29.47374847 -12.47374847 29.47374847 -15 32 C-17.52094076 32.08847743 -20.01430893 32.11527301 -22.53515625 32.09765625 C-23.66503212 32.09553383 -23.66503212 32.09553383 -24.81773376 32.09336853 C-27.2326956 32.08775376 -29.64756601 32.07519883 -32.0625 32.0625 C-33.69596221 32.0574869 -35.32942586 32.05292366 -36.96289062 32.04882812 C-40.97529585 32.03777954 -44.98763241 32.02050506 -49 32 C-49 31.67 -49 31.34 -49 31 C-38.44 31 -27.88 31 -17 31 C-17 29.35 -17 27.7 -17 26 C-16.01 25.67 -15.02 25.34 -14 25 C-14.05220703 23.31970703 -14.05220703 23.31970703 -14.10546875 21.60546875 C-14.13360839 20.13282749 -14.16090837 18.66017002 -14.1875 17.1875 C-14.21263672 16.44951172 -14.23777344 15.71152344 -14.26367188 14.95117188 C-14.33763538 9.50252708 -14.33763538 9.50252708 -12.65625 7 C-10.38051944 5.625974 -8.60439442 5.78883288 -6 6 C-6 5.34 -6 4.68 -6 4 C-4.35 4 -2.7 4 -1 4 C-0.67 2.68 -0.34 1.36 0 0 Z " fill="#3A6CAD" transform="translate(205,319)"/>
<path d="M0 0 C1.43836751 0.11458693 2.87570966 0.24209116 4.3125 0.375 C5.51326172 0.47941406 5.51326172 0.47941406 6.73828125 0.5859375 C9 1 9 1 12 3 C11.67 5.64 11.34 8.28 11 11 C6.545 11.495 6.545 11.495 2 12 C2.33 11.34 2.66 10.68 3 10 C2.34 9.67 1.68 9.34 1 9 C0.5859375 6.93359375 0.5859375 6.93359375 0.375 4.4375 C0.30023438 3.61121094 0.22546875 2.78492188 0.1484375 1.93359375 C0.09945312 1.29550781 0.05046875 0.65742188 0 0 Z " fill="#101011" transform="translate(228,283)"/>
<path d="M0 0 C1.051875 -0.02126953 1.051875 -0.02126953 2.125 -0.04296875 C4 0.1875 4 0.1875 6 2.1875 C6.625 4.8125 6.625 4.8125 7 7.1875 C7.66 6.8575 8.32 6.5275 9 6.1875 C8.44271087 9.53123475 7.64826111 12.22062999 6 15.1875 C5.34 14.5275 4.68 13.8675 4 13.1875 C1.93125966 12.5449765 1.93125966 12.5449765 0 12.1875 C0 9.8775 0 7.5675 0 5.1875 C-0.66 4.8575 -1.32 4.5275 -2 4.1875 C-2 3.5275 -2 2.8675 -2 2.1875 C-3.32 2.5175 -4.64 2.8475 -6 3.1875 C-6 2.5275 -6 1.8675 -6 1.1875 C-3.77109005 0.07304502 -2.46944894 0.02269714 0 0 Z " fill="#090909" transform="translate(424,278.8125)"/>
<path d="M0 0 C0.61875 0.4125 1.2375 0.825 1.875 1.25 C5.40799467 3.22847701 9.00540285 4.62120736 12.79296875 6.03515625 C15 7 15 7 17 9 C16.71742799 12.9560082 14.31559095 15.9125454 12 19 C11.34 19 10.68 19 10 19 C10 16 10 13 10 10 C8.68662604 8.9739266 7.35335895 7.97272675 6 7 C6 6.34 6 5.68 6 5 C4.35 5 2.7 5 1 5 C0.67 3.35 0.34 1.7 0 0 Z " fill="#3068B2" transform="translate(193,170)"/>
<path d="M0 0 C0.51949219 0.45632812 1.03898437 0.91265625 1.57421875 1.3828125 C2.27160156 1.95773438 2.96898438 2.53265625 3.6875 3.125 C4.37199219 3.70507812 5.05648437 4.28515625 5.76171875 4.8828125 C7.97760959 6.30135158 7.97760959 6.30135158 10.44921875 5.31640625 C11.29097656 4.88199219 12.13273438 4.44757813 13 4 C14.70631728 3.26612798 16.41464663 2.53691573 18.125 1.8125 C18.97320312 1.44769531 19.82140625 1.08289063 20.6953125 0.70703125 C23 0 23 0 26 1 C26 1.66 26 2.32 26 3 C23.03 3.66 20.06 4.32 17 5 C17 5.66 17 6.32 17 7 C11.21564482 10.25369979 11.21564482 10.25369979 7.75390625 9.53125 C5.79848425 8.77836025 3.89365281 7.89699344 2 7 C2 6.34 2 5.68 2 5 C1.34 5 0.68 5 0 5 C0 3.35 0 1.7 0 0 Z " fill="#5282C0" transform="translate(124,173)"/>
<path d="M0 0 C1 3 1 3 0.0625 5.0625 C-0.288125 5.701875 -0.63875 6.34125 -1 7 C-1 7.66 -1 8.32 -1 9 C-0.38125 9.12375 0.2375 9.2475 0.875 9.375 C3 10 3 10 5 12 C-0.37163375 14.19748654 -0.37163375 14.19748654 -3.1875 13.3125 C-3.785625 12.879375 -4.38375 12.44625 -5 12 C-5.598125 11.5875 -6.19625 11.175 -6.8125 10.75 C-8 9 -8 9 -7.6875 5.8125 C-7.460625 4.884375 -7.23375 3.95625 -7 3 C-6.34 3 -5.68 3 -5 3 C-5 2.34 -5 1.68 -5 1 C-2 0 -2 0 0 0 Z " fill="#020303" transform="translate(422,281)"/>
<path d="M0 0 C1.18851563 0.00902344 2.37703125 0.01804688 3.6015625 0.02734375 C4.51679687 0.03894531 5.43203125 0.05054688 6.375 0.0625 C5.385 0.3925 4.395 0.7225 3.375 1.0625 C3.375 1.7225 3.375 2.3825 3.375 3.0625 C2.47007813 3.15337891 2.47007813 3.15337891 1.546875 3.24609375 C0.34804687 3.37177734 0.34804687 3.37177734 -0.875 3.5 C-1.66390625 3.58121094 -2.4528125 3.66242188 -3.265625 3.74609375 C-5.45088881 4.03915065 -7.49388974 4.51006275 -9.625 5.0625 C-9.65413072 9.43748593 -9.67184286 13.81244674 -9.6875 18.1875 C-9.69587891 19.425 -9.70425781 20.6625 -9.71289062 21.9375 C-9.71611328 23.13632813 -9.71933594 24.33515625 -9.72265625 25.5703125 C-9.72789307 26.67004395 -9.73312988 27.76977539 -9.73852539 28.90283203 C-9.6258558 32.03868105 -9.21126376 34.98309383 -8.625 38.0625 C-10.10009766 36.99804688 -10.10009766 36.99804688 -11.625 35.0625 C-12.01318359 31.92382812 -12.01318359 31.92382812 -12.0234375 28.09375 C-12.02630768 27.41703247 -12.02917786 26.74031494 -12.03213501 26.04309082 C-12.03417397 24.61416791 -12.02865569 23.18521698 -12.01611328 21.75634766 C-12.00005511 19.57000275 -12.01596534 17.38550621 -12.03515625 15.19921875 C-12.03317379 13.80989176 -12.02933004 12.42056591 -12.0234375 11.03125 C-12.02005371 9.76732422 -12.01666992 8.50339844 -12.01318359 7.20117188 C-11.625 4.0625 -11.625 4.0625 -10.22509766 2.18945312 C-6.76042894 -0.25072246 -4.20322619 -0.0412081 0 0 Z " fill="#537EBE" transform="translate(83.625,229.9375)"/>
<path d="M0 0 C1.50390625 1.21875 1.50390625 1.21875 3 3 C3.30987478 6.11001596 2.82447838 8.9937387 2 12 C-0.56795139 14.93480158 -3.20569696 15.47301347 -7 16 C-7 12 -7 12 -6 10 C-5.34 10.33 -4.68 10.66 -4 11 C-4 10.34 -4 9.68 -4 9 C-2.5 7.375 -2.5 7.375 -1 6 C-1.99 6.33 -2.98 6.66 -4 7 C-4.66 6.01 -5.32 5.02 -6 4 C-4.68 4.33 -3.36 4.66 -2 5 C-1.34 3.35 -0.68 1.7 0 0 Z " fill="#050505" transform="translate(455,279)"/>
<path d="M0 0 C2.92824652 0.97608217 4.61426621 2.10786631 7 4 C6.01 5.485 6.01 5.485 5 7 C7.31 7 9.62 7 12 7 C11.67 8.32 11.34 9.64 11 11 C7.8125 11.8125 7.8125 11.8125 4 12 C1 10 1 10 -1 7 C-0.8125 3.1875 -0.8125 3.1875 0 0 Z " fill="#101010" transform="translate(350,283)"/>
<path d="M0 0 C0.66 0.99 1.32 1.98 2 3 C-0.64 3.99 -3.28 4.98 -6 6 C-6.33 5.34 -6.66 4.68 -7 4 C-12.16192076 7.14480095 -16.16943929 10.9303009 -20.375 15.25 C-21.01566406 15.8996875 -21.65632813 16.549375 -22.31640625 17.21875 C-23.88229364 18.80800885 -25.44328509 20.40176417 -27 22 C-27 19 -27 19 -25.41113281 17.03881836 C-24.68249023 16.31315674 -23.95384766 15.58749512 -23.203125 14.83984375 C-22.4090625 14.04642578 -21.615 13.25300781 -20.796875 12.43554688 C-19.95640625 11.61119141 -19.1159375 10.78683594 -18.25 9.9375 C-17.425 9.10927734 -16.6 8.28105469 -15.75 7.42773438 C-6.13736679 -2.09962548 -6.13736679 -2.09962548 0 0 Z " fill="#6993C9" transform="translate(119,168)"/>
<path d="M0 0 C4.09438748 0.47767854 8.00991776 0.96553423 12 2 C12.99 2 13.98 2 15 2 C17.66796875 2.83203125 17.66796875 2.83203125 20 5 C20.646003 8.57150746 20.46757337 12.07309766 20.3125 15.6875 C20.28994141 16.67556641 20.26738281 17.66363281 20.24414062 18.68164062 C20.18517988 21.12261559 20.10295048 23.56054868 20 26 C19.67 26 19.34 26 19 26 C18.93941406 25.03578125 18.87882812 24.0715625 18.81640625 23.078125 C18.69072266 21.18320312 18.69072266 21.18320312 18.5625 19.25 C18.48128906 17.99703125 18.40007812 16.7440625 18.31640625 15.453125 C18.21199219 14.31359375 18.10757813 13.1740625 18 12 C17.95359375 11.24332031 17.9071875 10.48664063 17.859375 9.70703125 C16.38569817 6.77977319 13.67681243 6.44502132 10.6875 5.4375 C6.60147239 4.04193626 3.30460588 2.81503464 0 0 Z " fill="#4075BA" transform="translate(134,320)"/>
<path d="M0 0 C0.99 0 1.98 0 3 0 C3 1.65 3 3.3 3 5 C2.01 5.33 1.02 5.66 0 6 C0 6.99 0 7.98 0 9 C-0.99 9.33 -1.98 9.66 -3 10 C-4.04892238 11.63631892 -5.04906703 13.30485863 -6 15 C-6.66 15.66 -7.32 16.32 -8 17 C-8.93391003 18.81656815 -8.93391003 18.81656815 -9 21 C-7.44568209 24.18635171 -5.62400522 26.62590004 -3 29 C-3.33 29.66 -3.66 30.32 -4 31 C-10.52035529 25.09252406 -10.52035529 25.09252406 -12.125 21.4375 C-11.76692572 14.45505158 -6.71168025 10.55607295 -1.86328125 6.1484375 C0.43679464 3.97033683 0.43679464 3.97033683 0 0 Z " fill="#7498C9" transform="translate(102,288)"/>
<path d="M0 0 C0.99 0.66 1.98 1.32 3 2 C3 3.32 3 4.64 3 6 C1.02 6 -0.96 6 -3 6 C-4.11658501 10.68965706 -3.80619523 13.53763531 -2 18 C-4.95951263 15.97507031 -6.83302807 14.27828655 -8.6875 11.1875 C-9 8 -9 8 -7.8828125 6.09375 C-5.38661112 3.06353539 -3.78324166 1.26108055 0 0 Z " fill="#0C4DAA" transform="translate(99,184)"/>
<path d="M0 0 C4.50234373 -0.04944705 9.0045293 -0.08574161 13.50708008 -0.10986328 C15.03868361 -0.11991935 16.57026795 -0.133566 18.10180664 -0.15087891 C20.30359636 -0.17514498 22.50513219 -0.18648688 24.70703125 -0.1953125 C25.39150833 -0.20563507 26.07598541 -0.21595764 26.78120422 -0.22659302 C30.43061661 -0.22745382 31.87148502 -0.08567666 35 2 C36.2746125 6.04234251 36.10181946 10.10531783 36.0625 14.3125 C36.05347656 15.56675781 36.04445312 16.82101563 36.03515625 18.11328125 C36.02355469 19.06589844 36.01195312 20.01851562 36 21 C34 19 34 19 33.8046875 15.9609375 C33.82789063 14.77757812 33.85109375 13.59421875 33.875 12.375 C33.89304688 11.18648437 33.91109375 9.99796875 33.9296875 8.7734375 C33.95289063 7.85820312 33.97609375 6.94296875 34 6 C33.34 6 32.68 6 32 6 C31.67 4.35 31.34 2.7 31 1 C20.77 1 10.54 1 0 1 C0 0.67 0 0.34 0 0 Z " fill="#6088BC" transform="translate(157,149)"/>
<path d="M0 0 C0.66 1.32 1.32 2.64 2 4 C-0.15688839 5.68756545 -2.31756673 7.3692821 -4.48828125 9.0390625 C-6.07163678 10.27521254 -7.63503954 11.53778123 -9.16796875 12.8359375 C-14.20363988 16.98525259 -14.20363988 16.98525259 -18.375 17.0625 C-21 16 -21 16 -23 13 C-19.97580475 13.58803797 -16.98241547 14.22678118 -14 15 C-14 14.34 -14 13.68 -14 13 C-12.125 10.875 -12.125 10.875 -10 9 C-9.34 9 -8.68 9 -8 9 C-8 7.68 -8 6.36 -8 5 C-6.68 5.33 -5.36 5.66 -4 6 C-4 4.35 -4 2.7 -4 1 C-2.68 0.67 -1.36 0.34 0 0 Z " fill="#356BB5" transform="translate(132,316)"/>
<path d="M0 0 C-3.29872258 1.74920156 -6.68447337 3.02763838 -10.1875 4.3125 C-15.77070475 6.42983273 -20.90036108 8.90332004 -26 12 C-26 10.35 -26 8.7 -26 7 C-25.0925 6.731875 -24.185 6.46375 -23.25 6.1875 C-20.19764596 5.07221679 -18.5427563 3.92633053 -16 2 C-10.26065706 -1.15101181 -6.38540798 -1.2017888 0 0 Z " fill="#648EC5" transform="translate(164,194)"/>
<path d="M0 0 C2.475 0.99 2.475 0.99 5 2 C6.36340039 9.4367294 6.36340039 9.4367294 4.75 11.9375 C4.1725 12.618125 3.595 13.29875 3 14 C2.45788051 15.48529676 1.96222546 16.98793267 1.5 18.5 C-0.5640121 24.92489919 -0.5640121 24.92489919 -3 27 C-6.1875 27.25 -6.1875 27.25 -9 27 C-9 26.67 -9 26.34 -9 26 C-8.22914062 25.96132812 -7.45828125 25.92265625 -6.6640625 25.8828125 C-3.73852458 25.24911032 -3.73852458 25.24911032 -2.5234375 22.3046875 C-2.14445312 21.17289063 -1.76546875 20.04109375 -1.375 18.875 C-0.76205078 17.11736328 -0.76205078 17.11736328 -0.13671875 15.32421875 C0.23839844 14.22722656 0.61351563 13.13023437 1 12 C1.95559774 9.64336652 2.97215873 7.32616709 4 5 C2.68 4.34 1.36 3.68 0 3 C0 2.01 0 1.02 0 0 Z " fill="#658CBE" transform="translate(99,203)"/>
<path d="M0 0 C0.33 0 0.66 0 1 0 C1.03738281 1.02738281 1.07476562 2.05476562 1.11328125 3.11328125 C1.45057833 10.67184379 2.05476613 17.6017334 4.37890625 24.86328125 C5 27 5 27 5 30 C3.68 29.34 2.36 28.68 1 28 C1 26.02 1 24.04 1 22 C0.34 22 -0.32 22 -1 22 C-2.30833314 18.07500058 -1.89459999 14.49834979 -1.625 10.4375 C-1.58117187 9.65697266 -1.53734375 8.87644531 -1.4921875 8.07226562 C-1.13127309 2.26254618 -1.13127309 2.26254618 0 0 Z " fill="#5682BE" transform="translate(116,242)"/>
<path d="M0 0 C2.75006608 -0.0270203 5.49986546 -0.04684883 8.25 -0.0625 C9.02730469 -0.07087891 9.80460937 -0.07925781 10.60546875 -0.08789062 C11.73662109 -0.09272461 11.73662109 -0.09272461 12.890625 -0.09765625 C13.92751465 -0.10551147 13.92751465 -0.10551147 14.98535156 -0.11352539 C17.17239701 0.00971457 18.9449963 0.2248694 21 1 C22.3211345 3.48788924 23.34155863 5.75662176 24.3125 8.375 C24.72725586 9.40367187 24.72725586 9.40367187 25.15039062 10.453125 C27.13551642 15.59345074 27.13551642 15.59345074 26 19 C25.18618205 17.06305322 24.37399084 15.12542289 23.5625 13.1875 C23.11003906 12.10855469 22.65757813 11.02960938 22.19140625 9.91796875 C21.39624987 7.9704874 20.66520352 5.99561057 20 4 C18.80761719 3.87882812 17.61523438 3.75765625 16.38671875 3.6328125 C14.82026592 3.46397327 13.25386212 3.29467868 11.6875 3.125 C10.90181641 3.04636719 10.11613281 2.96773438 9.30664062 2.88671875 C8.1706543 2.76103516 8.1706543 2.76103516 7.01171875 2.6328125 C6.31522217 2.55949707 5.61872559 2.48618164 4.90112305 2.41064453 C3 2 3 2 0 0 Z " fill="#6A95C9" transform="translate(75,268)"/>
<path d="M0 0 C0.309375 0.639375 0.61875 1.27875 0.9375 1.9375 C1.8345163 3.93610821 1.8345163 3.93610821 3 5 C3.66 4.34 4.32 3.68 5 3 C5.33 5.64 5.66 8.28 6 11 C3.03 11 0.06 11 -3 11 C-3 9.68 -3 8.36 -3 7 C-2.34 7 -1.68 7 -1 7 C-0.67 4.69 -0.34 2.38 0 0 Z " fill="#1C1C1C" transform="translate(319,283)"/>
<path d="M0 0 C1.65 0 3.3 0 5 0 C4.67 2.97 4.34 5.94 4 9 C3.01 8.67 2.02 8.34 1 8 C0.67 7.34 0.34 6.68 0 6 C-2.93443402 6.26656572 -2.93443402 6.26656572 -6 7 C-6.99 8.485 -6.99 8.485 -8 10 C-8.66 9.67 -9.32 9.34 -10 9 C-9.34 7.68 -8.68 6.36 -8 5 C-5.69 5 -3.38 5 -1 5 C-0.67 3.35 -0.34 1.7 0 0 Z " fill="#343434" transform="translate(306,274)"/>
<path d="M0 0 C4.29 0 8.58 0 13 0 C13.33 1.32 13.66 2.64 14 4 C13 5 13 5 9.4375 5.0625 C8.303125 5.041875 7.16875 5.02125 6 5 C5.67 4.01 5.34 3.02 5 2 C3.02 2.33 1.04 2.66 -1 3 C-0.67 2.01 -0.34 1.02 0 0 Z " fill="#393939" transform="translate(154,274)"/>
<path d="M0 0 C0.66 0 1.32 0 2 0 C3.1875 1.5 3.1875 1.5 4 4 C3.27101296 6.78824238 2.1843275 9.37665092 1 12 C-0.32 11.67 -1.64 11.34 -3 11 C-2.69217504 9.35328588 -2.37860766 7.70764424 -2.0625 6.0625 C-1.88847656 5.14597656 -1.71445312 4.22945313 -1.53515625 3.28515625 C-1 1 -1 1 0 0 Z " fill="#030303" transform="translate(375,282)"/>
<path d="M0 0 C0.99 0 1.98 0 3 0 C3.12375 1.11375 3.2475 2.2275 3.375 3.375 C3.6465813 7.03103677 3.6465813 7.03103677 6 9 C3 11 3 11 0.3125 10.625 C-0.450625 10.41875 -1.21375 10.2125 -2 10 C-2.25 3.375 -2.25 3.375 0 0 Z " fill="#080707" transform="translate(290,283)"/>
<path d="M0 0 C0.8125 1.8125 0.8125 1.8125 1 4 C0.0625 6.25 0.0625 6.25 -1 8 C-2.32 7.67 -3.64 7.34 -5 7 C-5.33 5.68 -5.66 4.36 -6 3 C-7.32 2.67 -8.64 2.34 -10 2 C-9.67 1.34 -9.34 0.68 -9 0 C-5.44307323 -0.85056945 -3.50729422 -1.16909807 0 0 Z " fill="#171617" transform="translate(309,280)"/>
<path d="M0 0 C1.65 0.33 3.3 0.66 5 1 C6.3125 3.5625 6.3125 3.5625 7 6 C4.03 7.32 1.06 8.64 -2 10 C-1.34 6.7 -0.68 3.4 0 0 Z " fill="#2A2A2A" transform="translate(382,283)"/>
<path d="M0 0 C0.99 0 1.98 0 3 0 C1.33248852 3.94139078 -1.22710649 6.7892812 -4 10 C-7.63 9.01 -11.26 8.02 -15 7 C-15 6.67 -15 6.34 -15 6 C-14.33613281 6.06960937 -13.67226562 6.13921875 -12.98828125 6.2109375 C-7.82883818 6.71168298 -7.82883818 6.71168298 -3.328125 4.6640625 C-2.17192604 3.14387498 -1.08202053 1.57384805 0 0 Z " fill="#6791C6" transform="translate(201,189)"/>
<path d="M0 0 C1.98 0.495 1.98 0.495 4 1 C4.36122881 2.31057393 4.71380311 3.62353624 5.0625 4.9375 C5.25972656 5.66839844 5.45695312 6.39929688 5.66015625 7.15234375 C5.77230469 7.76207031 5.88445312 8.37179687 6 9 C5 10 5 10 2.5 10.125 C0 10 0 10 -1 9 C-1.23728814 2.47457627 -1.23728814 2.47457627 0 0 Z " fill="#262626" transform="translate(343,284)"/>
<path d="M0 0 C1.32 0 2.64 0 4 0 C4.36923077 6.4 4.36923077 6.4 2.5 9.4375 C2.005 9.953125 1.51 10.46875 1 11 C0.01 10.34 -0.98 9.68 -2 9 C-1.125 1.125 -1.125 1.125 0 0 Z " fill="#252525" transform="translate(461,274)"/>
<path d="M0 0 C0.625 1.875 0.625 1.875 1 4 C-1 6 -1 6 -4.34814453 6.22705078 C-5.77640633 6.22673375 -7.20469212 6.21541361 -8.6328125 6.1953125 C-9.76056595 6.19106766 -9.76056595 6.19106766 -10.91110229 6.18673706 C-13.31589578 6.17552874 -15.72031881 6.15042352 -18.125 6.125 C-19.75390088 6.11497102 -21.38280758 6.10584503 -23.01171875 6.09765625 C-27.00795556 6.07558735 -31.00391494 6.04105351 -35 6 C-35 5.67 -35 5.34 -35 5 C-24.44 5 -13.88 5 -3 5 C-2.34 3.68 -1.68 2.36 -1 1 C-0.67 0.67 -0.34 0.34 0 0 Z " fill="#7093C5" transform="translate(191,345)"/>
<path d="M0 0 C0.66 0.33 1.32 0.66 2 1 C1.67 1.99 1.34 2.98 1 4 C1.99 4.33 2.98 4.66 4 5 C3.67 6.98 3.34 8.96 3 11 C1.35 10.67 -0.3 10.34 -2 10 C-2.33 8.02 -2.66 6.04 -3 4 C-2.01 4 -1.02 4 0 4 C0 2.68 0 1.36 0 0 Z " fill="#252525" transform="translate(280,283)"/>
<path d="M0 0 C2.33944736 0.28730055 4.6739143 0.61936779 7 1 C7 2.32 7 3.64 7 5 C4.5 7.25 4.5 7.25 2 9 C1.34 8.67 0.68 8.34 0 8 C-0.6875 4.5 -0.6875 4.5 -1 1 C-0.67 0.67 -0.34 0.34 0 0 Z " fill="#070707" transform="translate(281,279)"/>
<path d="M0 0 C1.64548828 0.63228516 1.64548828 0.63228516 3.32421875 1.27734375 C4.77856765 1.83093462 6.2329991 2.38430862 7.6875 2.9375 C8.40873047 3.21529297 9.12996094 3.49308594 9.87304688 3.77929688 C13.56271893 5.17766574 17.08108282 6.38936004 21 7 C21 7.33 21 7.66 21 8 C8.74504249 8.71388102 8.74504249 8.71388102 3 4 C2.01 4 1.02 4 0 4 C0 2.68 0 1.36 0 0 Z " fill="#6A90C9" transform="translate(144,298)"/>
<path d="M0 0 C1.21816406 0.03480469 1.21816406 0.03480469 2.4609375 0.0703125 C3.68683594 0.09738281 3.68683594 0.09738281 4.9375 0.125 C5.87722656 0.15980469 5.87722656 0.15980469 6.8359375 0.1953125 C7.1659375 1.5153125 7.4959375 2.8353125 7.8359375 4.1953125 C5.50260417 4.1953125 3.16927083 4.1953125 0.8359375 4.1953125 C-1.36473671 5.12814546 -1.36473671 5.12814546 -3.1640625 6.1953125 C-3.7890625 4.3203125 -3.7890625 4.3203125 -4.1640625 2.1953125 C-2.1640625 0.1953125 -2.1640625 0.1953125 0 0 Z " fill="#2C2C2D" transform="translate(192.1640625,278.8046875)"/>
<path d="M0 0 C0.99 0 1.98 0 3 0 C2.9278125 0.96421875 2.855625 1.9284375 2.78125 2.921875 C2.6884375 4.18515625 2.595625 5.4484375 2.5 6.75 C2.4071875 8.00296875 2.314375 9.2559375 2.21875 10.546875 C2.06161598 13.02734771 2 15.51455517 2 18 C2.66 18 3.32 18 4 18 C3.67 18.99 3.34 19.98 3 21 C2.01 20.67 1.02 20.34 0 20 C0 13.4 0 6.8 0 0 Z " fill="#0E4DAA" transform="translate(154,329)"/>
<path d="M0 0 C0.33 0 0.66 0 1 0 C0.67 3.3 0.34 6.6 0 10 C-1.32 10.33 -2.64 10.66 -4 11 C-5 10 -5 10 -5.25 7.625 C-5 5 -5 5 -3.625 3.3125 C-3.08875 2.879375 -2.5525 2.44625 -2 2 C-1.34 1.34 -0.68 0.68 0 0 Z " fill="#111111" transform="translate(340,283)"/>
<path d="M0 0 C1.98 0.99 1.98 0.99 4 2 C4.33 1.67 4.66 1.34 5 1 C7.33297433 0.95907063 9.66705225 0.95758277 12 1 C11.01 1.66 10.02 2.32 9 3 C9.66 3.66 10.32 4.32 11 5 C9.68 5 8.36 5 7 5 C7.33 5.99 7.66 6.98 8 8 C5.13275314 7.42655063 4.1385485 7.1385485 2 5 C2 4.01 2 3.02 2 2 C1.34 2 0.68 2 0 2 C0 1.34 0 0.68 0 0 Z " fill="#2C2C2C" transform="translate(348,278)"/>
<path d="M0 0 C0.33 0.66 0.66 1.32 1 2 C0.01 2.66 -0.98 3.32 -2 4 C-1.814375 4.94875 -1.62875 5.8975 -1.4375 6.875 C-1 10 -1 10 -2 12 C-2.66 12 -3.32 12 -4 12 C-4 9.69 -4 7.38 -4 5 C-4.66 4.67 -5.32 4.34 -6 4 C-6 3.34 -6 2.68 -6 2 C-7.32 2.33 -8.64 2.66 -10 3 C-10 2.34 -10 1.68 -10 1 C-6.78548731 -0.60725635 -3.56387464 -0.05748185 0 0 Z " fill="#434343" transform="translate(428,279)"/>
<path d="M0 0 C2.31 0 4.62 0 7 0 C7 6.93 7 13.86 7 21 C6.67 21 6.34 21 6 21 C5.93941406 20.03578125 5.87882813 19.0715625 5.81640625 18.078125 C5.73261719 16.81484375 5.64882812 15.5515625 5.5625 14.25 C5.48128906 12.99703125 5.40007812 11.7440625 5.31640625 10.453125 C5.07484478 7.81682447 4.75716066 5.51962706 4 3 C2.68 2.67 1.36 2.34 0 2 C0 1.34 0 0.68 0 0 Z " fill="#507EB6" transform="translate(147,325)"/>
<path d="M0 0 C1.32 0 2.64 0 4 0 C5.703125 1.75 5.703125 1.75 7.25 4 C7.77078125 4.7425 8.2915625 5.485 8.828125 6.25 C9.21484375 6.8275 9.6015625 7.405 10 8 C9.67 8.66 9.34 9.32 9 10 C7.02 9.01 5.04 8.02 3 7 C3 5.68 3 4.36 3 3 C1.35 2.67 -0.3 2.34 -2 2 C-1.34 1.34 -0.68 0.68 0 0 Z " fill="#6D90C4" transform="translate(194,301)"/>
<path d="M0 0 C1.98 0 3.96 0 6 0 C5.67 1.32 5.34 2.64 5 4 C5.66 4 6.32 4 7 4 C7 4.66 7 5.32 7 6 C4.5 7.625 4.5 7.625 2 9 C-0.29013653 5.5647952 -0.17842973 4.014669 0 0 Z " fill="#040504" transform="translate(228,283)"/>
<path d="M0 0 C-0.33 0.99 -0.66 1.98 -1 3 C-1.66 3 -2.32 3 -3 3 C-3.33 5.31 -3.66 7.62 -4 10 C-4.66 10 -5.32 10 -6 10 C-6.33 10.99 -6.66 11.98 -7 13 C-7.66 12.34 -8.32 11.68 -9 11 C-9 9.68 -9 8.36 -9 7 C-8.360625 6.7525 -7.72125 6.505 -7.0625 6.25 C-4.80939427 5.19851273 -4.80939427 5.19851273 -4.375 2.9375 C-4.189375 1.9784375 -4.189375 1.9784375 -4 1 C-2 0 -2 0 0 0 Z " fill="#080808" transform="translate(329,276)"/>
<path d="M0 0 C-0.5625 1.875 -0.5625 1.875 -2 4 C-5.625 5.25 -5.625 5.25 -9 6 C-9.33 5.01 -9.66 4.02 -10 3 C-7.29536552 -0.8183075 -4.37912428 -0.24787496 0 0 Z " fill="#252525" transform="translate(455,279)"/>
<path d="M0 0 C0.886875 0.103125 1.77375 0.20625 2.6875 0.3125 C3.0175 0.9725 3.3475 1.6325 3.6875 2.3125 C1.7075 2.6425 -0.2725 2.9725 -2.3125 3.3125 C-2.6425 4.3025 -2.9725 5.2925 -3.3125 6.3125 C-5.375 7 -5.375 7 -7.3125 7.3125 C-7.6425 6.6525 -7.9725 5.9925 -8.3125 5.3125 C-4.12788462 0.38942308 -4.12788462 0.38942308 0 0 Z " fill="#111111" transform="translate(274.3125,278.6875)"/>
<path d="M0 0 C0.99 0.99 1.98 1.98 3 3 C-0.28557377 5.99987171 -3.79791054 7.02529928 -7.9765625 8.25390625 C-10.18813683 8.90892716 -10.18813683 8.90892716 -12 11 C-11.67 9.35 -11.34 7.7 -11 6 C-9.35 6 -7.7 6 -6 6 C-6 5.34 -6 4.68 -6 4 C-4.35 4 -2.7 4 -1 4 C-0.67 2.68 -0.34 1.36 0 0 Z " fill="#5B89C8" transform="translate(205,319)"/>
<path d="M0 0 C0.65355469 0.58007812 0.65355469 0.58007812 1.3203125 1.171875 C5.05744652 4.43984501 8.8076016 7.34140589 13 10 C11.3125 10.6875 11.3125 10.6875 9 11 C6.25 9.6875 6.25 9.6875 4 8 C4 7.34 4 6.68 4 6 C3.01 6 2.02 6 1 6 C0.67 4.02 0.34 2.04 0 0 Z " fill="#1C4D9E" transform="translate(130,287)"/>
<path d="M0 0 C4.29 0 8.58 0 13 0 C12.01 0.33 11.02 0.66 10 1 C10 1.66 10 2.32 10 3 C9.07767578 3.09087891 9.07767578 3.09087891 8.13671875 3.18359375 C7.32847656 3.26738281 6.52023438 3.35117188 5.6875 3.4375 C4.88699219 3.51871094 4.08648437 3.59992188 3.26171875 3.68359375 C0.83912821 3.95265693 0.83912821 3.95265693 -2 5 C-2 4.34 -2 3.68 -2 3 C-1.34 3 -0.68 3 0 3 C0 2.01 0 1.02 0 0 Z " fill="#356AB5" transform="translate(77,230)"/>
<path d="M0 0 C-1.50930162 4.22604452 -4.08915253 5.96936766 -8 8 C-11.25 7.9375 -11.25 7.9375 -14 7 C-14.66 6.01 -15.32 5.02 -16 4 C-12.97580475 4.58803797 -9.98241547 5.22678118 -7 6 C-7 5.34 -7 4.68 -7 4 C-3.58823529 0 -3.58823529 0 0 0 Z " fill="#7090C0" transform="translate(125,325)"/>
<path d="M0 0 C0.66 0 1.32 0 2 0 C1.67 2.31 1.34 4.62 1 7 C-0.65 7.33 -2.3 7.66 -4 8 C-4.33 6.35 -4.66 4.7 -5 3 C-4.34 2.67 -3.68 2.34 -3 2 C-2.34 2.33 -1.68 2.66 -1 3 C-0.67 2.01 -0.34 1.02 0 0 Z " fill="#3D3D3F" transform="translate(204,286)"/>
<path d="M0 0 C0.61875 0.4125 1.2375 0.825 1.875 1.25 C6.0844568 3.60729581 10.50022528 5.27872695 15 7 C13.171875 8.0546875 13.171875 8.0546875 11 9 C8.25 8.125 8.25 8.125 6 7 C6 6.34 6 5.68 6 5 C4.35 5 2.7 5 1 5 C0.67 3.35 0.34 1.7 0 0 Z " fill="#6592C8" transform="translate(193,170)"/>
<path d="M0 0 C2.31 0.33 4.62 0.66 7 1 C6.67 2.65 6.34 4.3 6 6 C3.69 6 1.38 6 -1 6 C-0.34 5.01 0.32 4.02 1 3 C0.67 2.01 0.34 1.02 0 0 Z " fill="#2C2C2C" transform="translate(157,281)"/>
<path d="M0 0 C3.63 0 7.26 0 11 0 C11 0.33 11 0.66 11 1 C8.69 1 6.38 1 4 1 C3.731875 1.78375 3.46375 2.5675 3.1875 3.375 C2 6 2 6 -1 8 C-0.67 5.36 -0.34 2.72 0 0 Z " fill="#242424" transform="translate(202,279)"/>
<path d="M0 0 C1.9375 0.375 1.9375 0.375 4 1 C4.33 1.66 4.66 2.32 5 3 C4.0625 5.125 4.0625 5.125 3 7 C1.35 7 -0.3 7 -2 7 C-1.34 4.69 -0.68 2.38 0 0 Z " fill="#1F1F1F" transform="translate(413,273)"/>
<path d="M0 0 C1.29315061 0.95632999 2.58446853 1.91513851 3.875 2.875 C4.59429687 3.40867188 5.31359375 3.94234375 6.0546875 4.4921875 C8 6 8 6 10 8 C4.25 8.125 4.25 8.125 2 7 C2 6.34 2 5.68 2 5 C1.34 5 0.68 5 0 5 C0 3.35 0 1.7 0 0 Z " fill="#3F76B9" transform="translate(124,173)"/>
<path d="M0 0 C0.33 0.66 0.66 1.32 1 2 C-0.38542316 5.62848922 -1.84351662 8.76527494 -4 12 C-7.125 12.1875 -7.125 12.1875 -10 12 C-10 11.67 -10 11.34 -10 11 C-8.35 10.67 -6.7 10.34 -5 10 C-4.80664062 9.36191406 -4.61328125 8.72382813 -4.4140625 8.06640625 C-4.02347656 6.82697266 -4.02347656 6.82697266 -3.625 5.5625 C-3.36976562 4.73878906 -3.11453125 3.91507813 -2.8515625 3.06640625 C-2 1 -2 1 0 0 Z " fill="#7099C9" transform="translate(100,218)"/>
<path d="M0 0 C4.28324091 2.51407619 6.64531705 4.12314139 8 9 C7.34 9 6.68 9 6 9 C6 8.34 6 7.68 6 7 C5.01 7 4.02 7 3 7 C2.67 7.66 2.34 8.32 2 9 C1.22678118 6.01758453 0.58803797 3.02419525 0 0 Z " fill="#2E64AC" transform="translate(201,309)"/>
<path d="M0 0 C2.66735273 2.48952921 4.55746343 4.63408134 6 8 C5.01 8.495 5.01 8.495 4 9 C4 8.34 4 7.68 4 7 C2.02 7.33 0.04 7.66 -2 8 C-1.34 5.36 -0.68 2.72 0 0 Z " fill="#164EA4" transform="translate(124,279)"/>
<path d="M0 0 C0.66 0.33 1.32 0.66 2 1 C1.50628906 1.45890625 1.01257813 1.9178125 0.50390625 2.390625 C-0.13675781 3.00421875 -0.77742188 3.6178125 -1.4375 4.25 C-2.07558594 4.85328125 -2.71367188 5.4565625 -3.37109375 6.078125 C-5.08516306 8.10048016 -5.59358878 9.41270605 -6 12 C-7.65 12 -9.3 12 -11 12 C-7.49102731 7.81576108 -3.91939465 3.80411834 0 0 Z " fill="#114CA1" transform="translate(108,173)"/>
<path d="M0 0 C1.32 0.33 2.64 0.66 4 1 C4 1.66 4 2.32 4 3 C3.01 3.495 3.01 3.495 2 4 C2.33 4.66 2.66 5.32 3 6 C1.68 6.33 0.36 6.66 -1 7 C-1.33 8.32 -1.66 9.64 -2 11 C-3 9 -3 9 -2.44140625 6.8359375 C-2.15136719 6.02382813 -1.86132812 5.21171875 -1.5625 4.375 C-1.27503906 3.55773437 -0.98757813 2.74046875 -0.69140625 1.8984375 C-0.46324219 1.27195312 -0.23507812 0.64546875 0 0 Z " fill="#363636" transform="translate(440,283)"/>
<path d="M0 0 C1.98 0.495 1.98 0.495 4 1 C4 2.65 4 4.3 4 6 C2.68 6.33 1.36 6.66 0 7 C-0.93423645 3.98968256 -1.04449911 3.13349732 0 0 Z " fill="#121215" transform="translate(209,287)"/>
<path d="M0 0 C0.99 0.33 1.98 0.66 3 1 C3.33 2.98 3.66 4.96 4 7 C1.83125748 6.49396008 0.00032373 6.00016187 -2 5 C-2 4.34 -2 3.68 -2 3 C-1.34 3 -0.68 3 0 3 C0 2.01 0 1.02 0 0 Z " fill="#272727" transform="translate(237,279)"/>
<path d="M0 0 C0.99 0 1.98 0 3 0 C3 1.65 3 3.3 3 5 C2.01 5.33 1.02 5.66 0 6 C0 6.99 0 7.98 0 9 C-1.65 9.33 -3.3 9.66 -5 10 C-3.69791667 8.56770833 -2.39583333 7.13541667 -1.09375 5.703125 C0.36024492 3.77639485 0.36024492 3.77639485 0 0 Z " fill="#4D77BD" transform="translate(102,288)"/>
<path d="M0 0 C3.09592835 3.5087188 4.74194623 6.49197399 6 11 C1.78577758 8.11658466 0.23924145 5.95696581 -1 1 C-0.67 0.67 -0.34 0.34 0 0 Z " fill="#7493C4" transform="translate(91,191)"/>
<path d="M0 0 C1.32 0 2.64 0 4 0 C4 1.65 4 3.3 4 5 C3.34 5 2.68 5 2 5 C1.67 5.99 1.34 6.98 1 8 C0.34 6.68 -0.32 5.36 -1 4 C-0.34 3.67 0.32 3.34 1 3 C0.67 2.01 0.34 1.02 0 0 Z " fill="#191919" transform="translate(395,279)"/>
<path d="M0 0 C1.65 0 3.3 0 5 0 C4.67 1.32 4.34 2.64 4 4 C2.35 4.33 0.7 4.66 -1 5 C-0.67 3.35 -0.34 1.7 0 0 Z " fill="#363636" transform="translate(176,274)"/>
<path d="M0 0 C0.66 0 1.32 0 2 0 C2.33 1.65 2.66 3.3 3 5 C0.36 5.33 -2.28 5.66 -5 6 C-4.67 5.01 -4.34 4.02 -4 3 C-3.01 3 -2.02 3 -1 3 C-0.67 2.01 -0.34 1.02 0 0 Z " fill="#040508" transform="translate(235,289)"/>
<path d="M0 0 C2.97 0 5.94 0 9 0 C9.33 0.99 9.66 1.98 10 3 C8.5199159 2.88637738 7.04089926 2.75877092 5.5625 2.625 C4.73878906 2.55539062 3.91507813 2.48578125 3.06640625 2.4140625 C2.38449219 2.27742188 1.70257813 2.14078125 1 2 C0.67 1.34 0.34 0.68 0 0 Z " fill="#050405" transform="translate(153,291)"/>
<path d="M0 0 C1.67542976 0.28604898 3.34385343 0.61781233 5 1 C4.67 2.32 4.34 3.64 4 5 C2.0625 4.6875 2.0625 4.6875 0 4 C-0.33 3.01 -0.66 2.02 -1 1 C-0.67 0.67 -0.34 0.34 0 0 Z " fill="#0A0A0A" transform="translate(382,279)"/>
<path d="M0 0 C0.33 0.66 0.66 1.32 1 2 C2.98 2 4.96 2 7 2 C7.33 2.66 7.66 3.32 8 4 C5.64561267 5.42944945 4.51967567 6.08661261 1.75 5.625 C1.1725 5.41875 0.595 5.2125 0 5 C-0.5625 3.0625 -0.5625 3.0625 -1 1 C-0.67 0.67 -0.34 0.34 0 0 Z " fill="#070707" transform="translate(408,277)"/>
<path d="M0 0 C2.475 0.99 2.475 0.99 5 2 C4.67 4.97 4.34 7.94 4 11 C1.6870518 8.6870518 1.50419025 7.52095125 0.875 4.375 C0.70742187 3.55773437 0.53984375 2.74046875 0.3671875 1.8984375 C0.24601562 1.27195312 0.12484375 0.64546875 0 0 Z " fill="#1250A6" transform="translate(97,271)"/>
<path d="M0 0 C0 0.66 0 1.32 0 2 C-2.31 3.32 -4.62 4.64 -7 6 C-7 4.35 -7 2.7 -7 1 C-4.50935112 0.31292445 -2.62113708 0 0 0 Z " fill="#5A86BC" transform="translate(145,200)"/>
<path d="M0 0 C-0.33 2.31 -0.66 4.62 -1 7 C-2.65 5.35 -4.3 3.7 -6 2 C-2.25 0 -2.25 0 0 0 Z " fill="#222222" transform="translate(416,281)"/>
<path d="M0 0 C0.33 0 0.66 0 1 0 C1.04254356 1.99954746 1.04080783 4.00041636 1 6 C0 7 0 7 -1.84765625 7.09765625 C-3.8984375 7.06510417 -5.94921875 7.03255208 -8 7 C-8 6.67 -8 6.34 -8 6 C-7.05125 5.7525 -6.1025 5.505 -5.125 5.25 C-1.91306809 4.3142923 -1.91306809 4.3142923 -0.625 1.875 C-0.41875 1.25625 -0.2125 0.6375 0 0 Z " fill="#5D5D5D" transform="translate(196,218)"/>
<path d="M0 0 C2.97 0.33 5.94 0.66 9 1 C9.33 2.32 9.66 3.64 10 5 C9.01 5.495 9.01 5.495 8 6 C8 5.01 8 4.02 8 3 C7.236875 3.061875 6.47375 3.12375 5.6875 3.1875 C3 3 3 3 0 0 Z " fill="#275CAC" transform="translate(200,177)"/>
<path d="M0 0 C0.99 0.495 0.99 0.495 2 1 C2 2.32 2 3.64 2 5 C2.66 5 3.32 5 4 5 C3.67 5.99 3.34 6.98 3 8 C2.01 7.67 1.02 7.34 0 7 C0 4.69 0 2.38 0 0 Z " fill="#2D5DB5" transform="translate(154,342)"/>
<path d="M0 0 C1.98 0.495 1.98 0.495 4 1 C3.67 2.32 3.34 3.64 3 5 C1.68 4.67 0.36 4.34 -1 4 C-0.67 2.68 -0.34 1.36 0 0 Z " fill="#090909" transform="translate(373,289)"/>
<path d="M0 0 C0.33 0.99 0.66 1.98 1 3 C0.071875 3.185625 0.071875 3.185625 -0.875 3.375 C-3.19120832 3.87197356 -3.19120832 3.87197356 -5 6 C-5 4.35 -5 2.7 -5 1 C-2 0 -2 0 0 0 Z " fill="#090909" transform="translate(422,281)"/>
<path d="M0 0 C1.64826111 2.96687001 2.44271087 5.65626525 3 9 C1.68 8.34 0.36 7.68 -1 7 C-0.67 4.69 -0.34 2.38 0 0 Z " fill="#6895C6" transform="translate(118,263)"/>
<path d="M0 0 C-1.45255699 3.82946843 -3.42895561 5.12050295 -7 7 C-7 4 -7 4 -5.1875 1.8125 C-3 0 -3 0 0 0 Z " fill="#5482B8" transform="translate(125,325)"/>
<path d="M0 0 C3.63 0 7.26 0 11 0 C11 0.33 11 0.66 11 1 C9.5437328 1.36256858 8.08488815 1.71479793 6.625 2.0625 C5.40683594 2.35833984 5.40683594 2.35833984 4.1640625 2.66015625 C2 3 2 3 0 2 C0 1.34 0 0.68 0 0 Z " fill="#414141" transform="translate(329,279)"/>
<path d="M0 0 C1.32 0.33 2.64 0.66 4 1 C3.67 2.98 3.34 4.96 3 7 C2.01 6.67 1.02 6.34 0 6 C0 4.02 0 2.04 0 0 Z " fill="#0B0B0B" transform="translate(249,279)"/>
<path d="M0 0 C2.475 0.99 2.475 0.99 5 2 C5 2.99 5 3.98 5 5 C3.68 4.67 2.36 4.34 1 4 C0.67 2.68 0.34 1.36 0 0 Z " fill="#5580BA" transform="translate(99,203)"/>
<path d="M0 0 C3.465 1.98 3.465 1.98 7 4 C4.39417629 4.93065133 3.35801776 5.14917407 0.75 4.0625 C0.1725 3.711875 -0.405 3.36125 -1 3 C-0.67 2.01 -0.34 1.02 0 0 Z " fill="#4C76B4" transform="translate(136,293)"/>
<path d="M0 0 C1.65 0 3.3 0 5 0 C5 0.99 5 1.98 5 3 C3.68 3.33 2.36 3.66 1 4 C0.67 2.68 0.34 1.36 0 0 Z " fill="#151515" transform="translate(232,279)"/>
<path d="M0 0 C1.32 0.66 2.64 1.32 4 2 C3.01 2.66 2.02 3.32 1 4 C0.34 3.67 -0.32 3.34 -1 3 C-1 3.66 -1 4.32 -1 5 C-1.99 4.67 -2.98 4.34 -4 4 C-3.34 4 -2.68 4 -2 4 C-1.34 2.68 -0.68 1.36 0 0 Z " fill="#292929" transform="translate(405,275)"/>
</svg>
